<?xml version="1.0" encoding="utf-8"?>
<!-- Generator: Adobe Illustrator 22.1.0, SVG Export Plug-In . SVG Version: 6.00 Build 0)  -->
<svg version="1.1" id="Layer_1" xmlns="http://www.w3.org/2000/svg" xmlns:xlink="http://www.w3.org/1999/xlink" x="0px" y="0px"
	 viewBox="0 0 800 600" style="enable-background:new 0 0 800 600;" xml:space="preserve">
<style type="text/css">
	.st0{fill:#9E9E9E;}
	.st1{opacity:0.2;fill:#FFFFFF;enable-background:new    ;}
	.st2{fill:#424242;}
	.st3{opacity:0.2;fill:#202020;enable-background:new    ;}
	.st4{fill:#F44336;}
	.st5{fill:#FFFFFF;}
	.st6{fill:url(#finish_1_);}
	.st7{opacity:0.1;fill:#FFFFFF;enable-background:new    ;}
	.st8{clip-path:url(#SVGID_2_);}
	.st9{fill:#FFCC80;}
	.st10{opacity:0.5;}
	.st11{fill:#E65100;}
	.st12{fill:#757576;}
	.st13{fill:#EF6C00;}
	.st14{opacity:0.1;}
	.st15{opacity:0.2;}
	.st16{fill:url(#SVGID_3_);}
	.st17{fill:url(#SVGID_4_);}
	.st18{opacity:0.5;fill:#212121;enable-background:new    ;}
	.st19{fill:none;stroke:#9E9E9E;stroke-width:2;stroke-miterlimit:10;}
	.st20{fill:#B9F6CA;stroke:#9E9E9E;stroke-width:2;stroke-miterlimit:10;}
	.st21{fill:#B9F6CA;}
	.st22{fill:#BDBDBD;}
</style>
<g id="logo">
	
		<image style="overflow:visible;opacity:0.2;enable-background:new    ;" width="446" height="582" xlink:href="DC6B1E86.png"  transform="matrix(1 0 0 1 181 11)">
	</image>
	<path class="st0" d="M307.5,105.7h185.1c23.5,0,42.5,19,42.5,42.5v249.1c0,23.5-19,42.5-42.5,42.5H307.5c-23.5,0-42.5-19-42.5-42.5
		V148.2C265,124.7,284,105.7,307.5,105.7z"/>
	<path class="st1" d="M489.6,104.4H310.5c-26.8,0-45.1,21.9-45.1,48.7v4.1c0-26.8,18.3-48.7,45.1-48.7h179.1c26.7,0,45,21.9,45,48.7
		v-4.1C534.6,126.3,516.3,104.4,489.6,104.4z"/>
	<g id="logo-2">
		<path class="st2" d="M315.9,43.7l127.6-22.5c9.8-1.7,19.2,4.8,20.9,14.6l33.2,188.7c1.7,9.8-4.8,19.2-14.6,20.9L355.4,268
			c-9.8,1.7-19.2-4.8-20.9-14.6L301.3,64.6C299.5,54.8,306.1,45.5,315.9,43.7z"/>
		<path class="st1" d="M497.4,223.6L464.5,37c-1.9-10.4-11.7-17.3-22.1-15.5l-1.6,0.3c10.4-1.8,20.3,5.1,22.2,15.5l32.9,186.6
			c1.8,10.4-5.1,20.3-15.5,22.1l1.6-0.3C492.3,243.9,499.2,234,497.4,223.6z"/>
		<path class="st3" d="M334.3,252.3L301.5,65.7c-1.8-10.4,5.2-20.3,15.5-22.1l-1.6,0.3C305,45.7,298.1,55.6,299.9,66l32.9,186.6
			c1.9,10.4,11.8,17.3,22.1,15.5l1.6-0.3C346,269.6,336.1,262.7,334.3,252.3z"/>
		
			<rect id="screen" x="334.9" y="47.4" transform="matrix(0.9848 -0.1735 0.1735 0.9848 -19.0328 71.4854)" class="st4" width="129.1" height="194.5"/>
		<path class="st2" d="M296.1,152.2l24.7-4.4c5.5-1,10.7,2.7,11.7,8.2l0.4,2.1c1,5.5-2.7,10.7-8.2,11.7l-24.7,4.4
			c-5.5,1-10.7-2.7-11.7-8.2l-0.4-2.1C286.9,158.4,290.6,153.2,296.1,152.2z"/>
		
			<image style="overflow:visible;opacity:0.2;enable-background:new    ;" width="57" height="113" xlink:href="DC6B1E8A.png"  transform="matrix(1 0 0 1 272 111)">
		</image>
		<path class="st2" d="M288.1,119.7l1.8-0.3c4.7-0.8,9.2,2.3,10,7l12.5,70.8c0.8,4.7-2.3,9.2-7,10l-1.8,0.3c-4.7,0.8-9.2-2.3-10-7
			l-12.5-70.8C280.2,125,283.4,120.5,288.1,119.7z"/>
		<path class="st3" d="M293.4,199.6l-12.1-69c-0.8-4.9,2.2-9.6,7-10.9l-0.8,0.1c-5.2,0.9-8.6,5.9-7.8,11.1l12.1,69
			c0.9,5.2,5.9,8.7,11.1,7.8l0.8-0.2C298.7,207.9,294.3,204.5,293.4,199.6z"/>
		
			<image style="overflow:visible;opacity:0.2;enable-background:new    ;" width="95" height="93" xlink:href="DC6B1E8D.png"  transform="matrix(1 0 0 1 348 97)">
		</image>
		<path class="st5" d="M405,175.2l-46.1-54.7l69.8-12.8L405,175.2z"/>
		
			<linearGradient id="finish_1_" gradientUnits="userSpaceOnUse" x1="431.4843" y1="359.721" x2="616.9049" y2="174.3105" gradientTransform="matrix(0.1735 0.9848 0.9848 -0.1735 45.5276 -325.2638)">
			<stop  offset="0" style="stop-color:#FFFFFF;stop-opacity:0.1"/>
			<stop  offset="1" style="stop-color:#FFFFFF;stop-opacity:0"/>
		</linearGradient>
		<path id="finish" class="st6" d="M497.4,223.6L464.5,37c-1.9-10.4-11.7-17.3-22.1-15.5L317,43.5c-10.4,1.9-17.3,11.8-15.5,22.1
			l14.5,82.7l-11.7,3.3l-4.2-23.9c-0.9-5.2-5.9-8.7-11.1-7.8s-8.7,5.9-7.8,11.1l5.5,31l1.3,7.1l5.5,31c0.8,5.2,5.6,8.9,10.8,8.1
			c5.2-0.8,8.9-5.6,8.1-10.8c0-0.2-0.1-0.4-0.1-0.6l-4.2-23.9l11.7-3.3l14.6,82.7c1.9,10.4,11.7,17.3,22.1,15.5l125.5-22.1
			C492.3,243.9,499.2,234,497.4,223.6z"/>
	</g>
	
		<image style="overflow:visible;opacity:0.2;enable-background:new    ;" width="422" height="372" xlink:href="DC6B1E8E.png"  transform="matrix(1 0 0 1 191 186)">
	</image>
	<path class="st2" d="M216.7,196.4h366.5c8.5,0,15.5,6.9,15.5,15.5v316.3c0,8.5-6.9,15.5-15.5,15.5H216.7c-8.5,0-15.5-6.9-15.5-15.5
		V211.9C201.3,203.3,208.2,196.4,216.7,196.4z"/>
	<path class="st7" d="M581.4,196.4H218.6c-9.5,0-17.3,7.8-17.3,17.3v4c0-9.5,7.8-17.3,17.3-17.3h362.9c9.5,0,17.3,7.8,17.3,17.3v-4
		C598.7,204.2,591,196.4,581.4,196.4z"/>
	<g>
		<defs>
			<rect id="SVGID_1_" x="297.3" y="357.2" width="209.6" height="221.8"/>
		</defs>
		<clipPath id="SVGID_2_">
			<use xlink:href="#SVGID_1_"  style="overflow:visible;"/>
		</clipPath>
		<g class="st8">
			<path class="st9" d="M322,289.9c-9.9,1.2-17,10-16.2,19.9c6.7,75.3,6.4,151.1-0.8,226.4c-0.8,9.9,6.3,18.7,16.1,20l155.5,19.4
				c9.9,1.3,19-7.2,20.1-18.7c6.6-68.7,8.3-137.8,5-206.8c-24.3-25.6-49.3-49.8-74.9-72.5L322,289.9z"/>
			<g id="subs" class="st10">
				<path class="st11" d="M416.8,461.9c0.4-2.9,3-4.9,5.9-4.5c2.9,0.4,4.9,3,4.5,5.9c-0.3,2.7-2.7,4.7-5.4,4.6
					C418.8,467.6,416.6,464.9,416.8,461.9z"/>
				<path class="st11" d="M327.5,453.5l80.9,2.5c1.4,0.1,2.4,1.3,2.3,2.6c-0.1,2.1-0.1,4.1-0.2,6.1c0,1.4-1.1,2.5-2.5,2.5h0
					l-80.8-3.3c-1.3-0.1-2.3-1.2-2.3-2.5c0.1-1.9,0.1-3.8,0.2-5.7C325.1,454.5,326.2,453.4,327.5,453.5
					C327.5,453.5,327.5,453.5,327.5,453.5z"/>
				<path class="st11" d="M335.9,442.1c0,2.9-2.4,5.2-5.3,5.2c0,0,0,0-0.1,0c-2.9,0-5.2-2.4-5.2-5.3c0-2.9,2.4-5.2,5.3-5.2
					C333.6,436.7,335.9,439.1,335.9,442.1C335.9,442,335.9,442.1,335.9,442.1z"/>
				<path class="st11" d="M425.2,449.7l-80.9-2.1c-1.3,0-2.4-1.2-2.3-2.5c0-1.9,0.1-3.9,0.1-5.8c0-1.3,1.1-2.4,2.4-2.4l80.9,1.3
					c1.4,0.1,2.4,1.3,2.3,2.6c0,2.1-0.1,4.2-0.1,6.2C427.7,448.5,426.6,449.6,425.2,449.7C425.2,449.7,425.2,449.7,425.2,449.7z"/>
			</g>
			<g id="subs-2" class="st10">
				<path class="st11" d="M419,409.5c0.2-2.9,2.8-5,5.7-4.8c2.9,0.2,5,2.8,4.8,5.7c-0.2,2.7-2.5,4.8-5.2,4.8
					C421.2,415.1,418.9,412.6,419,409.5z"/>
				<path class="st11" d="M329.4,405l80.9-1c1.4,0,2.4,1.2,2.4,2.5c0,2,0,4.1,0,6.2c0.1,1.4-1,2.5-2.4,2.6l-80.9,0.2
					c-1.3,0-2.4-1.1-2.4-2.4c0-1.9,0-3.8,0-5.7C327.1,406.1,328.1,405,329.4,405z"/>
				<path class="st11" d="M337.3,393.2c0,2.9-2.3,5.3-5.2,5.3c-2.9,0-5.3-2.3-5.3-5.2c0-2.9,2.2-5.2,5.1-5.3
					C334.9,388,337.3,390.3,337.3,393.2z"/>
				<path class="st11" d="M426.9,396.9l-80.9,1.5c-1.3,0-2.4-1.1-2.4-2.4l-0.1-5.8c0-1.3,1-2.4,2.3-2.5l80.9-2.2
					c1.4,0,2.5,1.2,2.4,2.5c0,0,0,0,0,0c0.1,2.1,0.1,4.2,0.1,6.3C429.3,395.6,428.3,396.8,426.9,396.9z"/>
			</g>
			<g id="subs-3" class="st10">
				<path class="st11" d="M417.5,353.8c-0.3-3,1.9-5.7,4.9-6c3,0,5.5,2.4,5.5,5.4c0,0,0,0,0,0.1c0.3,3-1.9,5.7-5,6c0,0,0,0,0,0
					C419.9,359.3,417.5,356.8,417.5,353.8z"/>
				<path class="st11" d="M327.8,353.4l80.8-4.8c1.4,0,2.5,1.1,2.5,2.4c0,0,0,0,0,0c0.1,2,0.2,4.1,0.3,6.2c0.1,1.4-0.9,2.6-2.3,2.7
					l-80.8,4c-1.3,0.1-2.4-0.9-2.5-2.3c0,0,0,0,0,0l-0.3-5.7C325.5,354.6,326.5,353.5,327.8,353.4z"/>
				<path class="st11" d="M335.2,341.3c0.2,2.9-2,5.4-4.9,5.6c-2.9,0.2-5.3-2-5.5-4.9c0,0,0,0,0,0c-0.2-2.9,2-5.4,4.9-5.6
					C332.5,336.2,335,338.4,335.2,341.3C335.2,341.2,335.2,341.3,335.2,341.3z"/>
				<path class="st11" d="M424.9,340.8l-80.7,5.2c-1.3,0.1-2.4-0.9-2.5-2.3c0,0,0,0,0,0l-0.4-5.8c-0.1-1.3,0.9-2.5,2.2-2.6l80.7-6
					c1.4,0,2.5,1,2.5,2.4c0,0,0,0,0,0c0.1,2.1,0.3,4.2,0.4,6.3C427.3,339.4,426.3,340.6,424.9,340.8
					C424.9,340.8,424.9,340.8,424.9,340.8z"/>
			</g>
			<g id="CC" class="st10">
				<path id="C" class="st12" d="M372.7,501.6c-0.8,12.6-1.8,25.2-2.9,37.7c-0.6,6.9,4.1,13.2,10.7,13.9l12,1.4
					c6.6,0.8,12.5-4.4,13.2-11.6c0.3-3.2,0.6-6.5,0.9-9.7l-12-1.2c-0.3,3.2-0.6,6.4-0.9,9.6l-12-1.3c1.2-12.7,2.2-25.4,3-38.1
					l12,0.9c-0.2,3.2-0.4,6.4-0.6,9.6l12,1c0.2-3.2,0.5-6.5,0.7-9.7c0.5-7.2-4.6-13.3-11.2-13.7l-12-0.7
					C378.8,489.3,373.2,494.6,372.7,501.6z"/>
				<path id="C-2" class="st12" d="M324.8,498.1c-0.8,12.1-1.7,24.1-2.8,36.2c-0.6,6.6,4.1,12.6,10.8,13.4l11.9,1.4
					c6.6,0.7,12.5-4.2,13.1-10.7c0-0.1,0-0.2,0-0.3c0.3-3.1,0.6-6.2,0.8-9.3l-12-1.2c-0.3,3.1-0.5,6.2-0.8,9.2l-12-1.3
					c1.1-12.2,2.1-24.4,2.9-36.6l12,0.9c-0.2,3.1-0.4,6.2-0.6,9.3l12,1c0.2-3.1,0.4-6.2,0.6-9.4c0.5-6.7-4.5-12.6-11.2-13.2
					c0,0,0,0,0,0l-12-0.7C330.8,486.5,325.2,491.5,324.8,498.1z"/>
				<path id="C-3" class="st13" d="M372.7,501.6c-0.8,12.6-1.8,25.2-2.9,37.7c-0.6,6.9,4.1,13.2,10.7,13.9l12,1.4
					c6.6,0.8,12.5-4.4,13.2-11.6c0.3-3.2,0.6-6.5,0.9-9.7l-12-1.2c-0.3,3.2-0.6,6.4-0.9,9.6l-12-1.3c1.2-12.7,2.2-25.4,3-38.1
					l12,0.9c-0.2,3.2-0.4,6.4-0.6,9.6l12,1c0.2-3.2,0.5-6.5,0.7-9.7c0.5-7.2-4.6-13.3-11.2-13.7l-12-0.7
					C378.8,489.3,373.2,494.6,372.7,501.6z"/>
				<path id="C-4" class="st13" d="M324.8,498.1c-0.8,12.1-1.7,24.1-2.8,36.2c-0.6,6.6,4.1,12.6,10.8,13.4l11.9,1.4
					c6.6,0.7,12.5-4.2,13.1-10.7c0-0.1,0-0.2,0-0.3c0.3-3.1,0.6-6.2,0.8-9.3l-12-1.2c-0.3,3.1-0.5,6.2-0.8,9.2l-12-1.3
					c1.1-12.2,2.1-24.4,2.9-36.6l12,0.9c-0.2,3.1-0.4,6.2-0.6,9.3l12,1c0.2-3.1,0.4-6.2,0.6-9.4c0.5-6.7-4.5-12.6-11.2-13.2
					c0,0,0,0,0,0l-12-0.7C330.8,486.5,325.2,491.5,324.8,498.1z"/>
				<g class="st14">
					<path class="st13" d="M394.4,533.5l12,1.2c0-0.4,0.1-0.9,0.1-1.3l-12-1.2L394.4,533.5z"/>
					<path class="st13" d="M393.6,543.2l0.1-1.3l-12-1.3l-0.1,1.3L393.6,543.2z"/>
					<path class="st13" d="M397.5,490.5l-12-0.7c-6.6-0.4-12.3,4.9-12.7,11.9c0,0.4,0,0.9-0.1,1.3c0.5-6.9,6.1-12.3,12.8-11.9
						l12,0.7c6.6,0.4,11.7,6.5,11.2,13.7l0.1-1.3C409.2,497,404.1,490.8,397.5,490.5z"/>
				</g>
				<g class="st14">
					<path class="st13" d="M347.1,528.9l12,1.2c0-0.4,0.1-0.9,0.1-1.3l-12-1.2C347.2,528.1,347.1,528.5,347.1,528.9z"/>
					<path class="st13" d="M346.3,538.2l0.1-1.3l-12-1.3l-0.1,1.3L346.3,538.2z"/>
					<path class="st13" d="M350,487.6l-12-0.7c-6.6-0.4-12.3,4.7-12.7,11.3c0,0.4,0,0.8-0.1,1.2c0.4-6.7,6.1-11.7,12.8-11.3
						c0,0,0,0,0,0l12,0.8c6.7,0.5,11.8,6.4,11.3,13.2c0,0,0,0,0,0.1l0.1-1.3c0.5-6.7-4.5-12.6-11.2-13.2
						C350.1,487.6,350,487.6,350,487.6z"/>
				</g>
				<g class="st15">
					<path class="st13" d="M396.7,503.3l-12-0.9c0,0.4,0,0.9-0.1,1.3l12,0.9C396.6,504.2,396.7,503.8,396.7,503.3z"/>
					<path class="st13" d="M392.5,554.7l-12-1.4c-6.6-0.8-11.4-7-10.7-13.9c0,0.4-0.1,0.9-0.1,1.3c-0.6,6.9,4.1,13.2,10.7,14
						l11.9,1.4c6.6,0.8,12.5-4.4,13.2-11.6c0-0.5,0.1-0.9,0.1-1.3C405,550.3,399,555.4,392.5,554.7z"/>
					<path class="st13" d="M396,514.3l12,1l0.1-1.3l-12-1L396,514.3z"/>
				</g>
				<g class="st15">
					<path class="st13" d="M348.6,499.9l-12-0.9c0,0.4,0,0.8-0.1,1.3l12,0.9C348.5,500.7,348.6,500.3,348.6,499.9z"/>
					<path class="st13" d="M344.5,549.1l-11.9-1.4c-6.6-0.8-11.4-6.8-10.8-13.4l-0.1,1.2c-0.6,6.7,4.1,12.6,10.8,13.5l11.9,1.4
						c6.6,0.7,12.5-4.1,13.1-10.7c0-0.1,0-0.2,0-0.3l0.1-1.3c-0.5,6.6-6.3,11.5-12.9,11C344.7,549.1,344.6,549.1,344.5,549.1z"/>
					<path class="st13" d="M347.9,510.4l12,1l0.1-1.3l-12-1L347.9,510.4z"/>
				</g>
			</g>
			
				<image style="overflow:visible;opacity:0.2;enable-background:new    ;" width="103" height="116" xlink:href="DC6B1E8C.png"  transform="matrix(0.9903 0 0 0.9903 417.31 257.5431)">
			</image>
			<path class="st11" d="M428.3,294.2h0.3c-0.1,1.1-0.1,2.2,0,3.3c1.1,12.1,2,24.3,2.7,36.4c0.7,10.9,9.2,19.4,19.1,18.9l31.6-1.7
				l1.5-0.1l18-1c-24.3-25.6-49.3-49.8-74.9-72.5C427.3,283.1,427.8,288.7,428.3,294.2z"/>
			
				<linearGradient id="SVGID_3_" gradientUnits="userSpaceOnUse" x1="281.0738" y1="274.7643" x2="508.3968" y2="47.4513" gradientTransform="matrix(1 0 0 -1 0 600)">
				<stop  offset="0" style="stop-color:#FFFFFF;stop-opacity:0.1"/>
				<stop  offset="1" style="stop-color:#FFFFFF;stop-opacity:0"/>
			</linearGradient>
			<path class="st16" d="M322,289.9c-9.9,1.2-17,10-16.2,19.9c6.7,75.3,6.4,151.1-0.8,226.4c-0.8,9.9,6.3,18.7,16.1,20l155.5,19.4
				c9.9,1.3,19-7.2,20.1-18.7c6.6-68.7,8.3-137.8,5-206.8c-24.3-25.6-49.3-49.8-74.9-72.5L322,289.9z"/>
			
				<linearGradient id="SVGID_4_" gradientUnits="userSpaceOnUse" x1="281.0738" y1="274.7643" x2="508.3968" y2="47.4513" gradientTransform="matrix(1 0 0 -1 0 600)">
				<stop  offset="0" style="stop-color:#FFFFFF;stop-opacity:0.1"/>
				<stop  offset="1" style="stop-color:#FFFFFF;stop-opacity:0"/>
			</linearGradient>
			<path class="st17" d="M322,289.9c-9.9,1.2-17,10-16.2,19.9c6.7,75.3,6.4,151.1-0.8,226.4c-0.8,9.9,6.3,18.7,16.1,20l155.5,19.4
				c9.9,1.3,19-7.2,20.1-18.7c6.6-68.7,8.3-137.8,5-206.8c-24.3-25.6-49.3-49.8-74.9-72.5L322,289.9z"/>
		</g>
	</g>
	
		<image style="overflow:visible;opacity:0.2;enable-background:new    ;" width="270" height="52" xlink:href="DC6B1E8B.png"  transform="matrix(1 0 0 1 269 323)">
	</image>
	<path class="st0" d="M289.6,331.2h220.8c6.8,0,12.4,5.6,12.4,12.4v2.9c0,6.8-5.6,12.4-12.4,12.4H289.6c-6.8,0-12.4-5.6-12.4-12.4
		v-2.9C277.2,336.7,282.8,331.2,289.6,331.2z"/>
	<path class="st1" d="M291.1,335.1h217.9c6.9,0,12.7,5.1,13.7,11.9c0.1-0.7,0.2-1.3,0.2-2c0-7.6-6.2-13.8-13.9-13.9H291.1
		c-7.6,0-13.8,6.2-13.9,13.9c0,0.7,0.1,1.3,0.2,2C278.4,340.2,284.2,335.2,291.1,335.1z"/>
	<g id="Power_Buton">
		<path class="st18" d="M237.3,216h35c3.1,0,5.5,2.5,5.5,5.5v27.9c0,3.1-2.5,5.5-5.5,5.5h-35c-3.1,0-5.5-2.5-5.5-5.5v-27.9
			C231.8,218.5,234.2,216,237.3,216z"/>
		
			<ellipse transform="matrix(0.1602 -0.9871 0.9871 0.1602 -19.1038 449.8062)" class="st19" cx="254.8" cy="236.1" rx="8.9" ry="8.8"/>
		<path class="st20" d="M254.8,237.2L254.8,237.2z"/>
	</g>
	
		<image style="overflow:visible;opacity:0.2;enable-background:new    ;" width="120" height="41" xlink:href="DC6B1E85.png"  transform="matrix(1 0 0 1 473 218)">
	</image>
	<path class="st0" d="M490.3,228.2h80.9c3.9,0,7.1,3.2,7.1,7.1v1.7c0,3.9-3.2,7.1-7.1,7.1h-80.9c-3.9,0-7.1-3.2-7.1-7.1v-1.7
		C483.2,231.4,486.3,228.2,490.3,228.2z"/>
	<circle class="st21" cx="495.1" cy="236.1" r="4"/>
	<circle class="st22" cx="526.8" cy="236.1" r="4"/>
	<circle class="st22" cx="510.9" cy="236.1" r="4"/>
</g>
</svg>
